<mxfile host="" modified="2020-07-16T02:23:44.912Z" agent="5.0 (X11; Linux x86_64) AppleWebKit/537.36 (KHTML, like Gecko) Code/1.46.1 Chrome/78.0.3904.130 Electron/7.3.1 Safari/537.36" etag="TgjdSAgNJDtlRh8DaQ-R" version="13.1.3">
    <diagram id="6hGFLwfOUW9BJ-s0fimq" name="Page-1">
        <mxGraphModel dx="1446" dy="1943" grid="1" gridSize="10" guides="1" tooltips="1" connect="1" arrows="1" fold="1" page="1" pageScale="1" pageWidth="827" pageHeight="1169" math="0" shadow="0">
            <root>
                <mxCell id="0"/>
                <mxCell id="1" parent="0"/>
                <mxCell id="53" value="" style="edgeStyle=entityRelationEdgeStyle;fontSize=12;html=1;endArrow=ERmandOne;startArrow=ERmandOne;strokeColor=#FFFFFF;strokeWidth=2;entryX=0;entryY=0.5;entryDx=0;entryDy=0;exitX=1;exitY=-0.077;exitDx=0;exitDy=0;exitPerimeter=0;fontStyle=0;fontColor=#000000;" parent="1" source="18" target="7" edge="1">
                    <mxGeometry width="100" height="100" relative="1" as="geometry">
                        <mxPoint x="370" y="350" as="sourcePoint"/>
                        <mxPoint x="470" y="250" as="targetPoint"/>
                    </mxGeometry>
                </mxCell>
                <mxCell id="56" value="" style="edgeStyle=orthogonalEdgeStyle;fontSize=12;html=1;endArrow=ERoneToMany;startArrow=ERmandOne;strokeColor=#FFFFFF;strokeWidth=2;entryX=0;entryY=0.5;entryDx=0;entryDy=0;exitX=1;exitY=0.5;exitDx=0;exitDy=0;fontStyle=0;fontColor=#000000;curved=1;" parent="1" source="7" target="42" edge="1">
                    <mxGeometry width="100" height="100" relative="1" as="geometry">
                        <mxPoint x="370" y="350" as="sourcePoint"/>
                        <mxPoint x="470" y="250" as="targetPoint"/>
                    </mxGeometry>
                </mxCell>
                <mxCell id="70" value="" style="edgeStyle=orthogonalEdgeStyle;fontSize=12;html=1;endArrow=ERmany;strokeColor=#FFFFFF;strokeWidth=2;entryX=1;entryY=0.5;entryDx=0;entryDy=0;exitX=0;exitY=0.5;exitDx=0;exitDy=0;curved=1;fontStyle=0;fontColor=#000000;" parent="1" source="44" target="60" edge="1">
                    <mxGeometry width="100" height="100" relative="1" as="geometry">
                        <mxPoint x="370" y="350" as="sourcePoint"/>
                        <mxPoint x="470" y="250" as="targetPoint"/>
                    </mxGeometry>
                </mxCell>
                <mxCell id="71" value="" style="edgeStyle=orthogonalEdgeStyle;fontSize=12;html=1;endArrow=ERmany;strokeColor=#FFFFFF;strokeWidth=2;entryX=0.5;entryY=0;entryDx=0;entryDy=0;curved=1;exitX=0.5;exitY=1;exitDx=0;exitDy=0;exitPerimeter=0;fontStyle=0;fontColor=#000000;" parent="1" source="11" target="57" edge="1">
                    <mxGeometry width="100" height="100" relative="1" as="geometry">
                        <mxPoint x="370" y="280" as="sourcePoint"/>
                        <mxPoint x="460" y="469" as="targetPoint"/>
                    </mxGeometry>
                </mxCell>
                <mxCell id="81" value="" style="edgeStyle=orthogonalEdgeStyle;fontSize=12;html=1;endArrow=ERmany;strokeColor=#FFFFFF;strokeWidth=2;entryX=0.5;entryY=1;entryDx=0;entryDy=0;fontStyle=0;fontColor=#000000;exitX=0.75;exitY=0;exitDx=0;exitDy=0;curved=1;" parent="1" source="2" target="72" edge="1">
                    <mxGeometry width="100" height="100" relative="1" as="geometry">
                        <mxPoint x="380" y="280" as="sourcePoint"/>
                        <mxPoint x="390" y="310" as="targetPoint"/>
                    </mxGeometry>
                </mxCell>
                <mxCell id="95" value="" style="edgeStyle=entityRelationEdgeStyle;fontSize=12;html=1;endArrow=ERoneToMany;strokeColor=#FFFFFF;strokeWidth=2;entryX=0;entryY=0.5;entryDx=0;entryDy=0;exitX=1;exitY=0.25;exitDx=0;exitDy=0;fontStyle=0;fontColor=#000000;" parent="1" source="2" target="89" edge="1">
                    <mxGeometry width="100" height="100" relative="1" as="geometry">
                        <mxPoint x="410" y="200" as="sourcePoint"/>
                        <mxPoint x="510" y="100" as="targetPoint"/>
                    </mxGeometry>
                </mxCell>
                <mxCell id="13" value="profiles" style="swimlane;fontStyle=0;childLayout=stackLayout;horizontal=1;startSize=26;horizontalStack=0;resizeParent=1;resizeParentMax=0;resizeLast=0;collapsible=1;marginBottom=0;align=center;fontSize=14;fillColor=#00FF00;strokeColor=#000000;fontColor=#000000;" parent="1" vertex="1">
                    <mxGeometry x="-180" y="180" width="190" height="134" as="geometry"/>
                </mxCell>
                <mxCell id="14" value="user_id BIGINT" style="shape=partialRectangle;top=0;left=0;right=0;bottom=1;align=left;verticalAlign=middle;fillColor=#ffffff;spacingLeft=60;spacingRight=4;overflow=hidden;rotatable=0;points=[[0,0.5],[1,0.5]];portConstraint=eastwest;dropTarget=0;fontStyle=1;fontSize=12;fontColor=#000000;strokeColor=#000000;" parent="13" vertex="1">
                    <mxGeometry y="26" width="190" height="30" as="geometry"/>
                </mxCell>
                <mxCell id="15" value="PK FK" style="shape=partialRectangle;top=0;left=0;bottom=0;fillColor=none;align=left;verticalAlign=middle;spacingLeft=4;spacingRight=4;overflow=hidden;rotatable=0;points=[];portConstraint=eastwest;part=1;fontSize=12;fontColor=#000000;strokeColor=#000000;fontStyle=0" parent="14" vertex="1" connectable="0">
                    <mxGeometry width="53.125" height="30" as="geometry"/>
                </mxCell>
                <mxCell id="16" value="name VARCHAR(128)" style="shape=partialRectangle;top=1;left=0;right=0;bottom=0;align=left;verticalAlign=top;fillColor=#ffffff;spacingLeft=34;spacingRight=4;overflow=hidden;rotatable=0;points=[[0,0.5],[1,0.5]];portConstraint=eastwest;dropTarget=0;fontSize=12;fontColor=#000000;strokeColor=#000000;fontStyle=0" parent="13" vertex="1">
                    <mxGeometry y="56" width="190" height="26" as="geometry"/>
                </mxCell>
                <mxCell id="17" value="" style="shape=partialRectangle;top=0;left=0;bottom=0;fillColor=none;align=left;verticalAlign=top;spacingLeft=4;spacingRight=4;overflow=hidden;rotatable=0;points=[];portConstraint=eastwest;part=1;fontSize=12;fontColor=#000000;strokeColor=#000000;fontStyle=0" parent="16" vertex="1" connectable="0">
                    <mxGeometry width="30" height="26" as="geometry"/>
                </mxCell>
                <mxCell id="18" value="lastname VARCHAR(128)" style="shape=partialRectangle;top=0;left=0;right=0;bottom=0;align=left;verticalAlign=top;fillColor=#ffffff;spacingLeft=34;spacingRight=4;overflow=hidden;rotatable=0;points=[[0,0.5],[1,0.5]];portConstraint=eastwest;dropTarget=0;fontSize=12;fontColor=#000000;strokeColor=#000000;fontStyle=0" parent="13" vertex="1">
                    <mxGeometry y="82" width="190" height="26" as="geometry"/>
                </mxCell>
                <mxCell id="19" value="" style="shape=partialRectangle;top=0;left=0;bottom=0;fillColor=none;align=left;verticalAlign=top;spacingLeft=4;spacingRight=4;overflow=hidden;rotatable=0;points=[];portConstraint=eastwest;part=1;fontSize=12;fontColor=#000000;strokeColor=#000000;fontStyle=0" parent="18" vertex="1" connectable="0">
                    <mxGeometry width="30" height="26" as="geometry"/>
                </mxCell>
                <mxCell id="20" value="email VARCHAR(128)" style="shape=partialRectangle;top=0;left=0;right=0;bottom=0;align=left;verticalAlign=top;fillColor=#ffffff;spacingLeft=34;spacingRight=4;overflow=hidden;rotatable=0;points=[[0,0.5],[1,0.5]];portConstraint=eastwest;dropTarget=0;fontSize=12;fontColor=#000000;strokeColor=#000000;fontStyle=0" parent="13" vertex="1">
                    <mxGeometry y="108" width="190" height="26" as="geometry"/>
                </mxCell>
                <mxCell id="21" value="" style="shape=partialRectangle;top=0;left=0;bottom=0;fillColor=none;align=left;verticalAlign=top;spacingLeft=4;spacingRight=4;overflow=hidden;rotatable=0;points=[];portConstraint=eastwest;part=1;fontSize=12;fontColor=#000000;strokeColor=#000000;fontStyle=0" parent="20" vertex="1" connectable="0">
                    <mxGeometry width="30" height="26" as="geometry"/>
                </mxCell>
                <mxCell id="173" value="" style="fontSize=12;html=1;endArrow=ERmany;entryX=1;entryY=0.5;entryDx=0;entryDy=0;exitX=0;exitY=0.5;exitDx=0;exitDy=0;edgeStyle=orthogonalEdgeStyle;elbow=vertical;curved=1;strokeWidth=2;" parent="1" source="3" target="162" edge="1">
                    <mxGeometry width="100" height="100" relative="1" as="geometry">
                        <mxPoint x="270" y="60" as="sourcePoint"/>
                        <mxPoint x="370" y="-40" as="targetPoint"/>
                    </mxGeometry>
                </mxCell>
                <mxCell id="140" value="LEGEND" style="swimlane;fontStyle=0;childLayout=stackLayout;horizontal=1;startSize=26;horizontalStack=0;resizeParent=1;resizeParentMax=0;resizeLast=0;collapsible=1;marginBottom=0;align=center;fontSize=14;labelBackgroundColor=none;fillColor=#CCCCCC;fontColor=#000000;strokeColor=#000000;rounded=0;" parent="1" vertex="1">
                    <mxGeometry x="-320" y="-380" width="160" height="130" as="geometry"/>
                </mxCell>
                <mxCell id="144" value="" style="shape=partialRectangle;top=0;left=0;right=0;bottom=0;align=left;verticalAlign=top;fillColor=#1ba1e2;spacingLeft=34;spacingRight=4;overflow=hidden;rotatable=0;points=[[0,0.5],[1,0.5]];portConstraint=eastwest;dropTarget=0;fontSize=12;labelBackgroundColor=none;strokeColor=#000000;fontColor=#000000;" parent="140" vertex="1">
                    <mxGeometry y="26" width="160" height="26" as="geometry"/>
                </mxCell>
                <mxCell id="145" value="Level 1" style="shape=partialRectangle;top=0;left=0;bottom=0;fillColor=#CCCCCC;align=left;verticalAlign=top;spacingLeft=4;spacingRight=4;overflow=hidden;rotatable=0;points=[];portConstraint=eastwest;part=1;fontSize=12;fontColor=#000000;strokeColor=#000000;" parent="144" vertex="1" connectable="0">
                    <mxGeometry width="50" height="26" as="geometry"/>
                </mxCell>
                <mxCell id="152" value="" style="shape=partialRectangle;top=0;left=0;right=0;bottom=0;align=left;verticalAlign=top;fillColor=#00FF00;spacingLeft=34;spacingRight=4;overflow=hidden;rotatable=0;points=[[0,0.5],[1,0.5]];portConstraint=eastwest;dropTarget=0;fontSize=12;labelBackgroundColor=none;strokeColor=#000000;fontColor=#000000;" parent="140" vertex="1">
                    <mxGeometry y="52" width="160" height="26" as="geometry"/>
                </mxCell>
                <mxCell id="153" value="Level 2" style="shape=partialRectangle;top=0;left=0;bottom=0;fillColor=#CCCCCC;align=left;verticalAlign=top;spacingLeft=4;spacingRight=4;overflow=hidden;rotatable=0;points=[];portConstraint=eastwest;part=1;fontSize=12;fontColor=#000000;strokeColor=#000000;" parent="152" vertex="1" connectable="0">
                    <mxGeometry width="50" height="26" as="geometry"/>
                </mxCell>
                <mxCell id="154" value="" style="shape=partialRectangle;top=0;left=0;right=0;bottom=0;align=left;verticalAlign=top;fillColor=#D80073;spacingLeft=34;spacingRight=4;overflow=hidden;rotatable=0;points=[[0,0.5],[1,0.5]];portConstraint=eastwest;dropTarget=0;fontSize=12;labelBackgroundColor=none;strokeColor=#000000;fontColor=#000000;" parent="140" vertex="1">
                    <mxGeometry y="78" width="160" height="26" as="geometry"/>
                </mxCell>
                <mxCell id="155" value="Level 3" style="shape=partialRectangle;top=0;left=0;bottom=0;fillColor=#CCCCCC;align=left;verticalAlign=top;spacingLeft=4;spacingRight=4;overflow=hidden;rotatable=0;points=[];portConstraint=eastwest;part=1;fontSize=12;fontColor=#000000;strokeColor=#000000;" parent="154" vertex="1" connectable="0">
                    <mxGeometry width="50" height="26" as="geometry"/>
                </mxCell>
                <mxCell id="156" value="" style="shape=partialRectangle;top=0;left=0;right=0;bottom=0;align=left;verticalAlign=top;fillColor=#6A00FF;spacingLeft=34;spacingRight=4;overflow=hidden;rotatable=0;points=[[0,0.5],[1,0.5]];portConstraint=eastwest;dropTarget=0;fontSize=12;labelBackgroundColor=none;strokeColor=#000000;fontColor=#000000;" parent="140" vertex="1">
                    <mxGeometry y="104" width="160" height="26" as="geometry"/>
                </mxCell>
                <mxCell id="157" value="Level 4" style="shape=partialRectangle;top=0;left=0;bottom=0;fillColor=#CCCCCC;align=left;verticalAlign=top;spacingLeft=4;spacingRight=4;overflow=hidden;rotatable=0;points=[];portConstraint=eastwest;part=1;fontSize=12;fontColor=#000000;strokeColor=#000000;" parent="156" vertex="1" connectable="0">
                    <mxGeometry width="50" height="26" as="geometry"/>
                </mxCell>
                <mxCell id="84" value="reports" style="swimlane;fontStyle=1;childLayout=stackLayout;horizontal=1;startSize=26;horizontalStack=0;resizeParent=1;resizeParentMax=0;resizeLast=0;collapsible=1;marginBottom=0;align=center;fontSize=14;strokeColor=#000000;fillColor=#d80073;fontColor=#000000;labelBackgroundColor=none;" parent="1" vertex="1">
                    <mxGeometry x="580" y="20" width="250" height="160" as="geometry"/>
                </mxCell>
                <mxCell id="85" value="id BIGINT" style="shape=partialRectangle;top=0;left=0;right=0;bottom=1;align=left;verticalAlign=middle;fillColor=#ffffff;spacingLeft=60;spacingRight=4;overflow=hidden;rotatable=0;points=[[0,0.5],[1,0.5]];portConstraint=eastwest;dropTarget=0;fontStyle=1;fontSize=12;fontColor=#000000;strokeColor=#000000;" parent="84" vertex="1">
                    <mxGeometry y="26" width="250" height="30" as="geometry"/>
                </mxCell>
                <mxCell id="86" value="PK AI" style="shape=partialRectangle;top=0;left=0;bottom=0;fillColor=#ffffff;align=left;verticalAlign=middle;spacingLeft=4;spacingRight=4;overflow=hidden;rotatable=0;points=[];portConstraint=eastwest;part=1;fontSize=12;fontColor=#000000;strokeColor=#000000;fontStyle=0" parent="85" vertex="1" connectable="0">
                    <mxGeometry width="50" height="30" as="geometry"/>
                </mxCell>
                <mxCell id="87" value="user_id BIGINT" style="shape=partialRectangle;top=1;left=0;right=0;bottom=0;align=left;verticalAlign=top;fillColor=#ffffff;spacingLeft=34;spacingRight=4;overflow=hidden;rotatable=0;points=[[0,0.5],[1,0.5]];portConstraint=eastwest;dropTarget=0;fontSize=12;fontColor=#000000;strokeColor=#000000;fontStyle=0" parent="84" vertex="1">
                    <mxGeometry y="56" width="250" height="26" as="geometry"/>
                </mxCell>
                <mxCell id="88" value="FK" style="shape=partialRectangle;top=1;left=0;bottom=0;fillColor=#ffffff;align=left;verticalAlign=top;spacingLeft=4;spacingRight=4;overflow=hidden;rotatable=0;points=[];portConstraint=eastwest;part=1;fontSize=12;fontColor=#000000;strokeColor=#000000;fontStyle=0" parent="87" vertex="1" connectable="0">
                    <mxGeometry width="30" height="26" as="geometry"/>
                </mxCell>
                <mxCell id="89" value="reportable_type VARCHAR(10)" style="shape=partialRectangle;top=0;left=0;right=0;bottom=0;align=left;verticalAlign=top;fillColor=#ffffff;spacingLeft=34;spacingRight=4;overflow=hidden;rotatable=0;points=[[0,0.5],[1,0.5]];portConstraint=eastwest;dropTarget=0;fontSize=12;fontColor=#000000;strokeColor=#000000;fontStyle=0" parent="84" vertex="1">
                    <mxGeometry y="82" width="250" height="26" as="geometry"/>
                </mxCell>
                <mxCell id="90" value="" style="shape=partialRectangle;top=0;left=0;bottom=0;fillColor=#ffffff;align=left;verticalAlign=top;spacingLeft=4;spacingRight=4;overflow=hidden;rotatable=0;points=[];portConstraint=eastwest;part=1;fontSize=12;fontColor=#000000;strokeColor=#000000;fontStyle=0" parent="89" vertex="1" connectable="0">
                    <mxGeometry width="30" height="26" as="geometry"/>
                </mxCell>
                <mxCell id="93" value="reportable_type VARCHAR(100)" style="shape=partialRectangle;top=0;left=0;right=0;bottom=0;align=left;verticalAlign=top;fillColor=#ffffff;spacingLeft=34;spacingRight=4;overflow=hidden;rotatable=0;points=[[0,0.5],[1,0.5]];portConstraint=eastwest;dropTarget=0;fontSize=12;fontColor=#000000;strokeColor=#000000;fontStyle=0" parent="84" vertex="1">
                    <mxGeometry y="108" width="250" height="26" as="geometry"/>
                </mxCell>
                <mxCell id="94" value="" style="shape=partialRectangle;top=0;left=0;bottom=0;fillColor=#ffffff;align=left;verticalAlign=top;spacingLeft=4;spacingRight=4;overflow=hidden;rotatable=0;points=[];portConstraint=eastwest;part=1;fontSize=12;fontColor=#000000;strokeColor=#000000;fontStyle=0" parent="93" vertex="1" connectable="0">
                    <mxGeometry width="30" height="26" as="geometry"/>
                </mxCell>
                <mxCell id="91" value="reason TEXT" style="shape=partialRectangle;top=0;left=0;right=0;bottom=0;align=left;verticalAlign=top;fillColor=#ffffff;spacingLeft=34;spacingRight=4;overflow=hidden;rotatable=0;points=[[0,0.5],[1,0.5]];portConstraint=eastwest;dropTarget=0;fontSize=12;fontColor=#000000;strokeColor=#000000;fontStyle=0" parent="84" vertex="1">
                    <mxGeometry y="134" width="250" height="26" as="geometry"/>
                </mxCell>
                <mxCell id="92" value="" style="shape=partialRectangle;top=0;left=0;bottom=0;fillColor=#ffffff;align=left;verticalAlign=top;spacingLeft=4;spacingRight=4;overflow=hidden;rotatable=0;points=[];portConstraint=eastwest;part=1;fontSize=12;fontColor=#000000;strokeColor=#000000;fontStyle=0" parent="91" vertex="1" connectable="0">
                    <mxGeometry width="30" height="26" as="geometry"/>
                </mxCell>
                <mxCell id="57" value="comments" style="swimlane;fontStyle=1;childLayout=stackLayout;horizontal=1;startSize=26;horizontalStack=0;resizeParent=1;resizeParentMax=0;resizeLast=0;collapsible=1;marginBottom=0;align=center;fontSize=14;strokeColor=#000000;fillColor=#6a00ff;fontColor=#000000;" parent="1" vertex="1">
                    <mxGeometry x="215" y="360" width="180" height="160" as="geometry"/>
                </mxCell>
                <mxCell id="58" value="id BIGINT" style="shape=partialRectangle;top=0;left=0;right=0;bottom=1;align=left;verticalAlign=middle;fillColor=#ffffff;spacingLeft=60;spacingRight=4;overflow=hidden;rotatable=0;points=[[0,0.5],[1,0.5]];portConstraint=eastwest;dropTarget=0;fontStyle=1;fontSize=12;fontColor=#000000;strokeColor=#000000;" parent="57" vertex="1">
                    <mxGeometry y="26" width="180" height="30" as="geometry"/>
                </mxCell>
                <mxCell id="59" value="PK AI" style="shape=partialRectangle;top=0;left=0;bottom=0;fillColor=#ffffff;align=left;verticalAlign=middle;spacingLeft=4;spacingRight=4;overflow=hidden;rotatable=0;points=[];portConstraint=eastwest;part=1;fontSize=12;fontColor=#000000;strokeColor=#000000;fontStyle=0" parent="58" vertex="1" connectable="0">
                    <mxGeometry width="50" height="30" as="geometry"/>
                </mxCell>
                <mxCell id="179" value="reply_to_id BIGINT" style="shape=partialRectangle;top=1;left=0;right=0;bottom=1;align=left;verticalAlign=top;fillColor=#ffffff;spacingLeft=34;spacingRight=4;overflow=hidden;rotatable=0;points=[[0,0.5],[1,0.5]];portConstraint=eastwest;dropTarget=0;fontSize=12;fontColor=#000000;strokeColor=#000000;fontStyle=0" parent="57" vertex="1">
                    <mxGeometry y="56" width="180" height="26" as="geometry"/>
                </mxCell>
                <mxCell id="180" value="FK" style="shape=partialRectangle;top=1;left=0;bottom=1;fillColor=#ffffff;align=left;verticalAlign=top;spacingLeft=4;spacingRight=4;overflow=hidden;rotatable=0;points=[];portConstraint=eastwest;part=1;fontSize=12;fontColor=#000000;strokeColor=#000000;fontStyle=0" parent="179" vertex="1" connectable="0">
                    <mxGeometry width="30" height="26" as="geometry"/>
                </mxCell>
                <mxCell id="60" value="user_id BIGINT" style="shape=partialRectangle;top=1;left=0;right=0;bottom=0;align=left;verticalAlign=top;fillColor=#ffffff;spacingLeft=34;spacingRight=4;overflow=hidden;rotatable=0;points=[[0,0.5],[1,0.5]];portConstraint=eastwest;dropTarget=0;fontSize=12;fontColor=#000000;strokeColor=#000000;fontStyle=0" parent="57" vertex="1">
                    <mxGeometry y="82" width="180" height="26" as="geometry"/>
                </mxCell>
                <mxCell id="61" value="FK" style="shape=partialRectangle;top=1;left=0;bottom=0;fillColor=#ffffff;align=left;verticalAlign=top;spacingLeft=4;spacingRight=4;overflow=hidden;rotatable=0;points=[];portConstraint=eastwest;part=1;fontSize=12;fontColor=#000000;strokeColor=#000000;fontStyle=0" parent="60" vertex="1" connectable="0">
                    <mxGeometry width="30" height="26" as="geometry"/>
                </mxCell>
                <mxCell id="62" value="post_id BIGINT" style="shape=partialRectangle;top=0;left=0;right=0;bottom=0;align=left;verticalAlign=top;fillColor=#ffffff;spacingLeft=34;spacingRight=4;overflow=hidden;rotatable=0;points=[[0,0.5],[1,0.5]];portConstraint=eastwest;dropTarget=0;fontSize=12;fontColor=#000000;strokeColor=#000000;fontStyle=0" parent="57" vertex="1">
                    <mxGeometry y="108" width="180" height="26" as="geometry"/>
                </mxCell>
                <mxCell id="63" value="FK" style="shape=partialRectangle;top=0;left=0;bottom=0;fillColor=#ffffff;align=left;verticalAlign=top;spacingLeft=4;spacingRight=4;overflow=hidden;rotatable=0;points=[];portConstraint=eastwest;part=1;fontSize=12;fontColor=#000000;strokeColor=#000000;fontStyle=0" parent="62" vertex="1" connectable="0">
                    <mxGeometry width="30" height="26" as="geometry"/>
                </mxCell>
                <mxCell id="64" value="comment VARCHAR(500)" style="shape=partialRectangle;top=0;left=0;right=0;bottom=0;align=left;verticalAlign=top;fillColor=#ffffff;spacingLeft=34;spacingRight=4;overflow=hidden;rotatable=0;points=[[0,0.5],[1,0.5]];portConstraint=eastwest;dropTarget=0;fontSize=12;fontColor=#000000;strokeColor=#000000;fontStyle=0" parent="57" vertex="1">
                    <mxGeometry y="134" width="180" height="26" as="geometry"/>
                </mxCell>
                <mxCell id="65" value="" style="shape=partialRectangle;top=0;left=0;bottom=0;fillColor=#ffffff;align=left;verticalAlign=top;spacingLeft=4;spacingRight=4;overflow=hidden;rotatable=0;points=[];portConstraint=eastwest;part=1;fontSize=12;fontColor=#000000;strokeColor=#000000;fontStyle=0" parent="64" vertex="1" connectable="0">
                    <mxGeometry width="30" height="26" as="geometry"/>
                </mxCell>
                <mxCell id="39" value="posts" style="swimlane;fontStyle=1;childLayout=stackLayout;horizontal=1;startSize=26;horizontalStack=0;resizeParent=1;resizeParentMax=0;resizeLast=0;collapsible=1;marginBottom=0;align=center;fontSize=14;strokeColor=#000000;fillColor=#00FF00;fontColor=#000000;" parent="1" vertex="1">
                    <mxGeometry x="500" y="240" width="270" height="186" as="geometry"/>
                </mxCell>
                <mxCell id="40" value="id VARCHAR(68) ({user_id}-{counter})" style="shape=partialRectangle;top=0;left=0;right=0;bottom=1;align=left;verticalAlign=middle;fillColor=#ffffff;spacingLeft=35;spacingRight=4;overflow=hidden;rotatable=0;points=[[0,0.5],[1,0.5]];portConstraint=eastwest;dropTarget=0;fontStyle=1;fontSize=12;fontColor=#000000;strokeColor=#000000;" parent="39" vertex="1">
                    <mxGeometry y="26" width="270" height="30" as="geometry"/>
                </mxCell>
                <mxCell id="41" value="PK" style="shape=partialRectangle;top=0;left=0;bottom=0;fillColor=#ffffff;align=left;verticalAlign=middle;spacingLeft=4;spacingRight=4;overflow=hidden;rotatable=0;points=[];portConstraint=eastwest;part=1;fontSize=12;fontColor=#000000;strokeColor=#000000;fontStyle=0" parent="40" vertex="1" connectable="0">
                    <mxGeometry width="30" height="30" as="geometry"/>
                </mxCell>
                <mxCell id="42" value="user_id BIGINT" style="shape=partialRectangle;top=1;left=0;right=0;bottom=0;align=left;verticalAlign=top;fillColor=#ffffff;spacingLeft=34;spacingRight=4;overflow=hidden;rotatable=0;points=[[0,0.5],[1,0.5]];portConstraint=eastwest;dropTarget=0;fontSize=12;fontColor=#000000;strokeColor=#000000;fontStyle=0" parent="39" vertex="1">
                    <mxGeometry y="56" width="270" height="26" as="geometry"/>
                </mxCell>
                <mxCell id="43" value="FK" style="shape=partialRectangle;top=1;left=0;bottom=0;fillColor=#ffffff;align=left;verticalAlign=top;spacingLeft=4;spacingRight=4;overflow=hidden;rotatable=0;points=[];portConstraint=eastwest;part=1;fontSize=12;fontColor=#000000;strokeColor=#000000;fontStyle=0" parent="42" vertex="1" connectable="0">
                    <mxGeometry width="30" height="26" as="geometry"/>
                </mxCell>
                <mxCell id="44" value="title VARCHAR(150)" style="shape=partialRectangle;top=0;left=0;right=0;bottom=0;align=left;verticalAlign=top;fillColor=#ffffff;spacingLeft=34;spacingRight=4;overflow=hidden;rotatable=0;points=[[0,0.5],[1,0.5]];portConstraint=eastwest;dropTarget=0;fontSize=12;fontColor=#000000;strokeColor=#000000;fontStyle=0" parent="39" vertex="1">
                    <mxGeometry y="82" width="270" height="26" as="geometry"/>
                </mxCell>
                <mxCell id="45" value="" style="shape=partialRectangle;top=0;left=0;bottom=0;fillColor=#ffffff;align=left;verticalAlign=top;spacingLeft=4;spacingRight=4;overflow=hidden;rotatable=0;points=[];portConstraint=eastwest;part=1;fontSize=12;fontColor=#000000;strokeColor=#000000;fontStyle=0" parent="44" vertex="1" connectable="0">
                    <mxGeometry width="30" height="26" as="geometry"/>
                </mxCell>
                <mxCell id="46" value="description TEXT" style="shape=partialRectangle;top=0;left=0;right=0;bottom=0;align=left;verticalAlign=top;fillColor=#ffffff;spacingLeft=34;spacingRight=4;overflow=hidden;rotatable=0;points=[[0,0.5],[1,0.5]];portConstraint=eastwest;dropTarget=0;fontSize=12;fontColor=#000000;strokeColor=#000000;fontStyle=0" parent="39" vertex="1">
                    <mxGeometry y="108" width="270" height="26" as="geometry"/>
                </mxCell>
                <mxCell id="47" value="" style="shape=partialRectangle;top=0;left=0;bottom=0;fillColor=#ffffff;align=left;verticalAlign=top;spacingLeft=4;spacingRight=4;overflow=hidden;rotatable=0;points=[];portConstraint=eastwest;part=1;fontSize=12;fontColor=#000000;strokeColor=#000000;fontStyle=0" parent="46" vertex="1" connectable="0">
                    <mxGeometry width="30" height="26" as="geometry"/>
                </mxCell>
                <mxCell id="48" value="type TINYINT" style="shape=partialRectangle;top=0;left=0;right=0;bottom=0;align=left;verticalAlign=top;fillColor=#ffffff;spacingLeft=34;spacingRight=4;overflow=hidden;rotatable=0;points=[[0,0.5],[1,0.5]];portConstraint=eastwest;dropTarget=0;fontSize=12;fontColor=#000000;strokeColor=#000000;fontStyle=0" parent="39" vertex="1">
                    <mxGeometry y="134" width="270" height="26" as="geometry"/>
                </mxCell>
                <mxCell id="49" value="" style="shape=partialRectangle;top=0;left=0;bottom=0;fillColor=#ffffff;align=left;verticalAlign=top;spacingLeft=4;spacingRight=4;overflow=hidden;rotatable=0;points=[];portConstraint=eastwest;part=1;fontSize=12;fontColor=#000000;strokeColor=#000000;fontStyle=0" parent="48" vertex="1" connectable="0">
                    <mxGeometry width="30" height="26" as="geometry"/>
                </mxCell>
                <mxCell id="50" value="created_at TIMESTAMP" style="shape=partialRectangle;top=0;left=0;right=0;bottom=0;align=left;verticalAlign=top;fillColor=#ffffff;spacingLeft=34;spacingRight=4;overflow=hidden;rotatable=0;points=[[0,0.5],[1,0.5]];portConstraint=eastwest;dropTarget=0;fontSize=12;strokeColor=#000000;fontColor=#000000;fontStyle=0" parent="39" vertex="1">
                    <mxGeometry y="160" width="270" height="26" as="geometry"/>
                </mxCell>
                <mxCell id="51" value="" style="shape=partialRectangle;fontStyle=1;top=0;left=0;bottom=0;fillColor=#ffffff;align=left;verticalAlign=top;spacingLeft=4;spacingRight=4;overflow=hidden;rotatable=0;points=[];portConstraint=eastwest;part=1;fontSize=12;strokeColor=#000000;fontColor=#000000;" parent="50" vertex="1" connectable="0">
                    <mxGeometry width="30" height="26" as="geometry"/>
                </mxCell>
                <mxCell id="183" value="" style="edgeStyle=orthogonalEdgeStyle;fontSize=12;html=1;endArrow=ERmandOne;strokeWidth=2;entryX=0;entryY=0.25;entryDx=0;entryDy=0;exitX=0;exitY=0.75;exitDx=0;exitDy=0;curved=1;" parent="1" source="57" target="57" edge="1">
                    <mxGeometry width="100" height="100" relative="1" as="geometry">
                        <mxPoint x="100" y="260" as="sourcePoint"/>
                        <mxPoint x="200" y="160" as="targetPoint"/>
                        <Array as="points">
                            <mxPoint x="120" y="450"/>
                        </Array>
                    </mxGeometry>
                </mxCell>
                <mxCell id="202" value="" style="edgeStyle=orthogonalEdgeStyle;fontSize=12;html=1;endArrow=ERmany;strokeColor=#FFFFFF;strokeWidth=2;fontStyle=0;fontColor=#000000;exitX=0.5;exitY=0;exitDx=0;exitDy=0;entryX=0.75;entryY=1;entryDx=0;entryDy=0;curved=1;" parent="1" source="2" target="124" edge="1">
                    <mxGeometry width="100" height="100" relative="1" as="geometry">
                        <mxPoint x="300" y="80" as="sourcePoint"/>
                        <mxPoint x="270" y="-130" as="targetPoint"/>
                    </mxGeometry>
                </mxCell>
                <mxCell id="159" value="advises" style="swimlane;fontStyle=0;childLayout=stackLayout;horizontal=1;startSize=26;horizontalStack=0;resizeParent=1;resizeParentMax=0;resizeLast=0;collapsible=1;marginBottom=0;align=center;fontSize=14;fillColor=#00FF00;strokeColor=#000000;fontColor=#000000;separatorColor=#000000;rounded=0;swimlaneFillColor=none;" parent="1" vertex="1">
                    <mxGeometry x="-270" y="-90" width="220" height="186" as="geometry"/>
                </mxCell>
                <mxCell id="160" value="id INTEGER" style="shape=partialRectangle;top=0;left=0;right=0;bottom=1;align=left;verticalAlign=middle;fillColor=#ffffff;spacingLeft=60;spacingRight=4;overflow=hidden;rotatable=0;points=[[0,0.5],[1,0.5]];portConstraint=eastwest;dropTarget=0;fontStyle=1;fontSize=12;fontColor=#000000;strokeColor=#000000;" parent="159" vertex="1">
                    <mxGeometry y="26" width="220" height="30" as="geometry"/>
                </mxCell>
                <mxCell id="161" value="PK  AI" style="shape=partialRectangle;top=0;left=0;bottom=0;fillColor=none;align=left;verticalAlign=middle;spacingLeft=4;spacingRight=4;overflow=hidden;rotatable=0;points=[];portConstraint=eastwest;part=1;fontSize=12;fontColor=#000000;strokeColor=#000000;fontStyle=0" parent="160" vertex="1" connectable="0">
                    <mxGeometry width="53.125" height="30" as="geometry"/>
                </mxCell>
                <mxCell id="162" value="modifier_user_id BIGINT" style="shape=partialRectangle;top=1;left=0;right=0;bottom=0;align=left;verticalAlign=top;fillColor=#ffffff;spacingLeft=34;spacingRight=4;overflow=hidden;rotatable=0;points=[[0,0.5],[1,0.5]];portConstraint=eastwest;dropTarget=0;fontSize=12;fontColor=#000000;strokeColor=#000000;perimeterSpacing=0;strokeWidth=1;fontStyle=0" parent="159" vertex="1">
                    <mxGeometry y="56" width="220" height="26" as="geometry"/>
                </mxCell>
                <mxCell id="163" value="FK" style="shape=partialRectangle;top=0;left=0;bottom=0;fillColor=none;align=left;verticalAlign=top;spacingLeft=4;spacingRight=4;overflow=hidden;rotatable=0;points=[];portConstraint=eastwest;part=1;fontSize=12;fontColor=#000000;strokeColor=#000000;fontStyle=0" parent="162" vertex="1" connectable="0">
                    <mxGeometry width="30" height="26" as="geometry"/>
                </mxCell>
                <mxCell id="164" value="title VARCHAR(128)" style="shape=partialRectangle;top=0;left=0;right=0;bottom=0;align=left;verticalAlign=top;fillColor=#ffffff;spacingLeft=34;spacingRight=4;overflow=hidden;rotatable=0;points=[[0,0.5],[1,0.5]];portConstraint=eastwest;dropTarget=0;fontSize=12;fontColor=#000000;strokeColor=#000000;strokeWidth=1;perimeterSpacing=0;fontStyle=0" parent="159" vertex="1">
                    <mxGeometry y="82" width="220" height="26" as="geometry"/>
                </mxCell>
                <mxCell id="165" value="" style="shape=partialRectangle;top=0;left=0;bottom=0;fillColor=none;align=left;verticalAlign=top;spacingLeft=4;spacingRight=4;overflow=hidden;rotatable=0;points=[];portConstraint=eastwest;part=1;fontSize=12;fontColor=#000000;strokeColor=#000000;fontStyle=0" parent="164" vertex="1" connectable="0">
                    <mxGeometry width="30" height="26" as="geometry"/>
                </mxCell>
                <mxCell id="166" value="content VARCHAR(500)" style="shape=partialRectangle;top=0;left=0;right=0;bottom=0;align=left;verticalAlign=top;fillColor=#ffffff;spacingLeft=34;spacingRight=4;overflow=hidden;rotatable=0;points=[[0,0.5],[1,0.5]];portConstraint=eastwest;dropTarget=0;fontSize=12;fontColor=#000000;strokeColor=#000000;fontStyle=0" parent="159" vertex="1">
                    <mxGeometry y="108" width="220" height="26" as="geometry"/>
                </mxCell>
                <mxCell id="167" value="" style="shape=partialRectangle;top=0;left=0;bottom=0;fillColor=none;align=left;verticalAlign=top;spacingLeft=4;spacingRight=4;overflow=hidden;rotatable=0;points=[];portConstraint=eastwest;part=1;fontSize=12;fontColor=#000000;strokeColor=#000000;fontStyle=0" parent="166" vertex="1" connectable="0">
                    <mxGeometry width="30" height="26" as="geometry"/>
                </mxCell>
                <mxCell id="175" value="show_at NULLABLE DATETIME" style="shape=partialRectangle;top=0;left=0;right=0;bottom=0;align=left;verticalAlign=top;fillColor=#ffffff;spacingLeft=34;spacingRight=4;overflow=hidden;rotatable=0;points=[[0,0.5],[1,0.5]];portConstraint=eastwest;dropTarget=0;fontSize=12;fontColor=#000000;strokeColor=#000000;fontStyle=0" parent="159" vertex="1">
                    <mxGeometry y="134" width="220" height="26" as="geometry"/>
                </mxCell>
                <mxCell id="176" value="" style="shape=partialRectangle;top=0;left=0;bottom=0;fillColor=none;align=left;verticalAlign=top;spacingLeft=4;spacingRight=4;overflow=hidden;rotatable=0;points=[];portConstraint=eastwest;part=1;fontSize=12;fontColor=#000000;strokeColor=#000000;fontStyle=0" parent="175" vertex="1" connectable="0">
                    <mxGeometry width="30" height="26" as="geometry"/>
                </mxCell>
                <mxCell id="177" value="expire_date DATETIME" style="shape=partialRectangle;top=0;left=0;right=0;bottom=0;align=left;verticalAlign=top;fillColor=#ffffff;spacingLeft=34;spacingRight=4;overflow=hidden;rotatable=0;points=[[0,0.5],[1,0.5]];portConstraint=eastwest;dropTarget=0;fontSize=12;fontColor=#000000;strokeColor=#000000;fontStyle=0" parent="159" vertex="1">
                    <mxGeometry y="160" width="220" height="26" as="geometry"/>
                </mxCell>
                <mxCell id="178" value="" style="shape=partialRectangle;top=0;left=0;bottom=0;fillColor=none;align=left;verticalAlign=top;spacingLeft=4;spacingRight=4;overflow=hidden;rotatable=0;points=[];portConstraint=eastwest;part=1;fontSize=12;fontColor=#000000;strokeColor=#000000;fontStyle=0" parent="177" vertex="1" connectable="0">
                    <mxGeometry width="30" height="26" as="geometry"/>
                </mxCell>
                <mxCell id="96" value="files" style="swimlane;fontStyle=1;childLayout=stackLayout;horizontal=1;startSize=26;horizontalStack=0;resizeParent=1;resizeParentMax=0;resizeLast=0;collapsible=1;marginBottom=0;align=center;fontSize=14;strokeColor=#000000;fillColor=#d80073;fontColor=#000000;" parent="1" vertex="1">
                    <mxGeometry x="-170" y="390" width="210" height="186" as="geometry"/>
                </mxCell>
                <mxCell id="97" value="id BIGINT" style="shape=partialRectangle;top=0;left=0;right=0;bottom=1;align=left;verticalAlign=middle;fillColor=#ffffff;spacingLeft=60;spacingRight=4;overflow=hidden;rotatable=0;points=[[0,0.5],[1,0.5]];portConstraint=eastwest;dropTarget=0;fontStyle=1;fontSize=12;fontColor=#000000;strokeColor=#000000;perimeterSpacing=0;strokeWidth=1;" parent="96" vertex="1">
                    <mxGeometry y="26" width="210" height="30" as="geometry"/>
                </mxCell>
                <mxCell id="98" value="PK AI" style="shape=partialRectangle;top=0;left=0;bottom=1;fillColor=#ffffff;align=left;verticalAlign=middle;spacingLeft=4;spacingRight=4;overflow=hidden;rotatable=0;points=[];portConstraint=eastwest;part=1;fontSize=12;fontColor=#000000;strokeColor=#000000;strokeWidth=1;fontStyle=0" parent="97" vertex="1" connectable="0">
                    <mxGeometry width="50" height="30" as="geometry"/>
                </mxCell>
                <mxCell id="101" value="fileable_type VARCHAR(10)" style="shape=partialRectangle;top=1;left=0;right=0;bottom=0;align=left;verticalAlign=top;fillColor=#ffffff;spacingLeft=34;spacingRight=4;overflow=hidden;rotatable=0;points=[[0,0.5],[1,0.5]];portConstraint=eastwest;dropTarget=0;fontSize=12;fontColor=#000000;strokeColor=#000000;fontStyle=0" parent="96" vertex="1">
                    <mxGeometry y="56" width="210" height="26" as="geometry"/>
                </mxCell>
                <mxCell id="102" value="" style="shape=partialRectangle;top=1;left=0;bottom=0;fillColor=#ffffff;align=left;verticalAlign=top;spacingLeft=4;spacingRight=4;overflow=hidden;rotatable=0;points=[];portConstraint=eastwest;part=1;fontSize=12;fontColor=#000000;strokeColor=#000000;fontStyle=0" parent="101" vertex="1" connectable="0">
                    <mxGeometry width="30" height="26" as="geometry"/>
                </mxCell>
                <mxCell id="103" value="fileable_id VARCHAR(100)" style="shape=partialRectangle;top=0;left=0;right=0;bottom=0;align=left;verticalAlign=top;fillColor=#ffffff;spacingLeft=34;spacingRight=4;overflow=hidden;rotatable=0;points=[[0,0.5],[1,0.5]];portConstraint=eastwest;dropTarget=0;fontSize=12;fontColor=#000000;strokeColor=#000000;fontStyle=0" parent="96" vertex="1">
                    <mxGeometry y="82" width="210" height="26" as="geometry"/>
                </mxCell>
                <mxCell id="104" value="" style="shape=partialRectangle;top=0;left=0;bottom=0;fillColor=#ffffff;align=left;verticalAlign=top;spacingLeft=4;spacingRight=4;overflow=hidden;rotatable=0;points=[];portConstraint=eastwest;part=1;fontSize=12;fontColor=#000000;strokeColor=#000000;fontStyle=0" parent="103" vertex="1" connectable="0">
                    <mxGeometry width="30" height="26" as="geometry"/>
                </mxCell>
                <mxCell id="105" value="type TINYINT" style="shape=partialRectangle;top=0;left=0;right=0;bottom=0;align=left;verticalAlign=top;fillColor=#ffffff;spacingLeft=34;spacingRight=4;overflow=hidden;rotatable=0;points=[[0,0.5],[1,0.5]];portConstraint=eastwest;dropTarget=0;fontSize=12;fontColor=#000000;strokeColor=#000000;fontStyle=0" parent="96" vertex="1">
                    <mxGeometry y="108" width="210" height="26" as="geometry"/>
                </mxCell>
                <mxCell id="106" value="" style="shape=partialRectangle;top=0;left=0;bottom=0;fillColor=#ffffff;align=left;verticalAlign=top;spacingLeft=4;spacingRight=4;overflow=hidden;rotatable=0;points=[];portConstraint=eastwest;part=1;fontSize=12;fontColor=#000000;strokeColor=#000000;fontStyle=0" parent="105" vertex="1" connectable="0">
                    <mxGeometry width="30" height="26" as="geometry"/>
                </mxCell>
                <mxCell id="107" value="url VARCHAR(500)" style="shape=partialRectangle;top=0;left=0;right=0;bottom=0;align=left;verticalAlign=top;fillColor=#ffffff;spacingLeft=34;spacingRight=4;overflow=hidden;rotatable=0;points=[[0,0.5],[1,0.5]];portConstraint=eastwest;dropTarget=0;fontSize=12;fontColor=#000000;strokeColor=#000000;fontStyle=0" parent="96" vertex="1">
                    <mxGeometry y="134" width="210" height="26" as="geometry"/>
                </mxCell>
                <mxCell id="108" value="" style="shape=partialRectangle;top=0;left=0;bottom=0;fillColor=#ffffff;align=left;verticalAlign=top;spacingLeft=4;spacingRight=4;overflow=hidden;rotatable=0;points=[];portConstraint=eastwest;part=1;fontSize=12;fontColor=#000000;strokeColor=#000000;fontStyle=0" parent="107" vertex="1" connectable="0">
                    <mxGeometry width="30" height="26" as="geometry"/>
                </mxCell>
                <mxCell id="109" value="mime_type TINYINT" style="shape=partialRectangle;top=0;left=0;right=0;bottom=0;align=left;verticalAlign=top;fillColor=#ffffff;spacingLeft=34;spacingRight=4;overflow=hidden;rotatable=0;points=[[0,0.5],[1,0.5]];portConstraint=eastwest;dropTarget=0;fontSize=12;fontColor=#000000;strokeColor=#000000;fontStyle=0" parent="96" vertex="1">
                    <mxGeometry y="160" width="210" height="26" as="geometry"/>
                </mxCell>
                <mxCell id="110" value="" style="shape=partialRectangle;top=0;left=0;bottom=0;fillColor=#ffffff;align=left;verticalAlign=top;spacingLeft=4;spacingRight=4;overflow=hidden;rotatable=0;points=[];portConstraint=eastwest;part=1;fontSize=12;fontColor=#000000;strokeColor=#000000;fontStyle=0" parent="109" vertex="1" connectable="0">
                    <mxGeometry width="30" height="26" as="geometry"/>
                </mxCell>
                <mxCell id="2" value="users" style="swimlane;fontStyle=0;childLayout=stackLayout;horizontal=1;startSize=26;horizontalStack=0;resizeParent=1;resizeParentMax=0;resizeLast=0;collapsible=1;marginBottom=0;align=center;fontSize=14;fillColor=#3399FF;strokeColor=#000000;fontColor=#000000;" parent="1" vertex="1">
                    <mxGeometry x="210" y="80" width="190" height="160" as="geometry"/>
                </mxCell>
                <mxCell id="3" value="id BIGINT" style="shape=partialRectangle;top=0;left=0;right=0;bottom=1;align=left;verticalAlign=middle;fillColor=#ffffff;spacingLeft=60;spacingRight=4;overflow=hidden;rotatable=0;points=[[0,0.5],[1,0.5]];portConstraint=eastwest;dropTarget=0;fontStyle=1;fontSize=12;fontColor=#000000;strokeColor=#000000;" parent="2" vertex="1">
                    <mxGeometry y="26" width="190" height="30" as="geometry"/>
                </mxCell>
                <mxCell id="4" value="PK AI" style="shape=partialRectangle;top=0;left=0;bottom=0;fillColor=none;align=left;verticalAlign=middle;spacingLeft=4;spacingRight=4;overflow=hidden;rotatable=0;points=[];portConstraint=eastwest;part=1;fontSize=12;fontColor=#000000;strokeColor=#000000;fontStyle=0" parent="3" vertex="1" connectable="0">
                    <mxGeometry width="50" height="30" as="geometry"/>
                </mxCell>
                <mxCell id="5" value="username VARCHAR(64)" style="shape=partialRectangle;top=1;left=0;right=0;bottom=0;align=left;verticalAlign=top;fillColor=#ffffff;spacingLeft=34;spacingRight=4;overflow=hidden;rotatable=0;points=[[0,0.5],[1,0.5]];portConstraint=eastwest;dropTarget=0;fontSize=12;fontColor=#000000;strokeColor=#000000;fontStyle=0" parent="2" vertex="1">
                    <mxGeometry y="56" width="190" height="26" as="geometry"/>
                </mxCell>
                <mxCell id="6" value="" style="shape=partialRectangle;top=1;left=0;bottom=0;fillColor=none;align=left;verticalAlign=top;spacingLeft=4;spacingRight=4;overflow=hidden;rotatable=0;points=[];portConstraint=eastwest;part=1;fontSize=12;strokeColor=#000000;fontColor=#000000;fontStyle=0" parent="5" vertex="1" connectable="0">
                    <mxGeometry width="30" height="26" as="geometry"/>
                </mxCell>
                <mxCell id="7" value="password VARCHAR(128)" style="shape=partialRectangle;top=0;left=0;right=0;bottom=0;align=left;verticalAlign=top;fillColor=#ffffff;spacingLeft=34;spacingRight=4;overflow=hidden;rotatable=0;points=[[0,0.5],[1,0.5]];portConstraint=eastwest;dropTarget=0;fontSize=12;fontColor=#000000;strokeColor=#000000;fontStyle=0" parent="2" vertex="1">
                    <mxGeometry y="82" width="190" height="26" as="geometry"/>
                </mxCell>
                <mxCell id="8" value="" style="shape=partialRectangle;top=0;left=0;bottom=0;fillColor=none;align=left;verticalAlign=top;spacingLeft=4;spacingRight=4;overflow=hidden;rotatable=0;points=[];portConstraint=eastwest;part=1;fontSize=12;strokeColor=#000000;fontColor=#000000;fontStyle=0" parent="7" vertex="1" connectable="0">
                    <mxGeometry width="30" height="26" as="geometry"/>
                </mxCell>
                <mxCell id="9" value="type TINYINT" style="shape=partialRectangle;top=0;left=0;right=0;bottom=0;align=left;verticalAlign=top;fillColor=#ffffff;spacingLeft=34;spacingRight=4;overflow=hidden;rotatable=0;points=[[0,0.5],[1,0.5]];portConstraint=eastwest;dropTarget=0;fontSize=12;fontColor=#000000;strokeColor=#000000;fontStyle=0" parent="2" vertex="1">
                    <mxGeometry y="108" width="190" height="26" as="geometry"/>
                </mxCell>
                <mxCell id="10" value="" style="shape=partialRectangle;top=0;left=0;bottom=0;fillColor=#ffffff;align=left;verticalAlign=top;spacingLeft=4;spacingRight=4;overflow=hidden;rotatable=0;points=[];portConstraint=eastwest;part=1;fontSize=12;fontColor=#000000;strokeColor=#000000;fontStyle=0" parent="9" vertex="1" connectable="0">
                    <mxGeometry width="30" height="26" as="geometry"/>
                </mxCell>
                <mxCell id="11" value="status TINYINT" style="shape=partialRectangle;top=0;left=0;right=0;bottom=0;align=left;verticalAlign=top;fillColor=#ffffff;spacingLeft=34;spacingRight=4;overflow=hidden;rotatable=0;points=[[0,0.5],[1,0.5]];portConstraint=eastwest;dropTarget=0;fontSize=12;fontColor=#000000;strokeColor=#000000;fontStyle=0" parent="2" vertex="1">
                    <mxGeometry y="134" width="190" height="26" as="geometry"/>
                </mxCell>
                <mxCell id="12" value="" style="shape=partialRectangle;top=0;left=0;bottom=0;fillColor=none;align=left;verticalAlign=top;spacingLeft=4;spacingRight=4;overflow=hidden;rotatable=0;points=[];portConstraint=eastwest;part=1;fontSize=12;strokeColor=#000000;fontColor=#000000;fontStyle=0" parent="11" vertex="1" connectable="0">
                    <mxGeometry width="30" height="26" as="geometry"/>
                </mxCell>
                <mxCell id="124" value="costs" style="swimlane;fontStyle=0;childLayout=stackLayout;horizontal=1;startSize=26;horizontalStack=0;resizeParent=1;resizeParentMax=0;resizeLast=0;collapsible=1;marginBottom=0;align=center;fontSize=14;fillColor=#00FF00;strokeColor=#000000;fontColor=#000000;separatorColor=#000000;rounded=0;swimlaneFillColor=none;" parent="1" vertex="1">
                    <mxGeometry x="-35" y="-294" width="250" height="186" as="geometry">
                        <mxRectangle x="120" y="-210" width="70" height="26" as="alternateBounds"/>
                    </mxGeometry>
                </mxCell>
                <mxCell id="125" value="id SMALLINT" style="shape=partialRectangle;top=0;left=0;right=0;bottom=1;align=left;verticalAlign=middle;fillColor=#ffffff;spacingLeft=60;spacingRight=4;overflow=hidden;rotatable=0;points=[[0,0.5],[1,0.5]];portConstraint=eastwest;dropTarget=0;fontStyle=1;fontSize=12;fontColor=#000000;strokeColor=#000000;" parent="124" vertex="1">
                    <mxGeometry y="26" width="250" height="30" as="geometry"/>
                </mxCell>
                <mxCell id="126" value="PK  AI" style="shape=partialRectangle;top=0;left=0;bottom=0;fillColor=none;align=left;verticalAlign=middle;spacingLeft=4;spacingRight=4;overflow=hidden;rotatable=0;points=[];portConstraint=eastwest;part=1;fontSize=12;fontColor=#000000;strokeColor=#000000;fontStyle=0" parent="125" vertex="1" connectable="0">
                    <mxGeometry width="53.125" height="30" as="geometry"/>
                </mxCell>
                <mxCell id="133" value="modified_by BIGINT" style="shape=partialRectangle;top=1;left=0;right=0;bottom=0;align=left;verticalAlign=top;fillColor=#ffffff;spacingLeft=34;spacingRight=4;overflow=hidden;rotatable=0;points=[[0,0.5],[1,0.5]];portConstraint=eastwest;dropTarget=0;fontSize=12;fontColor=#000000;strokeColor=#000000;perimeterSpacing=0;strokeWidth=1;fontStyle=0" parent="124" vertex="1">
                    <mxGeometry y="56" width="250" height="26" as="geometry"/>
                </mxCell>
                <mxCell id="134" value="FK" style="shape=partialRectangle;top=0;left=0;bottom=0;fillColor=none;align=left;verticalAlign=top;spacingLeft=4;spacingRight=4;overflow=hidden;rotatable=0;points=[];portConstraint=eastwest;part=1;fontSize=12;fontColor=#000000;strokeColor=#000000;fontStyle=0" parent="133" vertex="1" connectable="0">
                    <mxGeometry width="30" height="26" as="geometry"/>
                </mxCell>
                <mxCell id="127" value="name VARCHAR(128)" style="shape=partialRectangle;top=0;left=0;right=0;bottom=0;align=left;verticalAlign=top;fillColor=#ffffff;spacingLeft=34;spacingRight=4;overflow=hidden;rotatable=0;points=[[0,0.5],[1,0.5]];portConstraint=eastwest;dropTarget=0;fontSize=12;fontColor=#000000;strokeColor=#000000;strokeWidth=1;perimeterSpacing=0;fontStyle=0" parent="124" vertex="1">
                    <mxGeometry y="82" width="250" height="26" as="geometry"/>
                </mxCell>
                <mxCell id="128" value="" style="shape=partialRectangle;top=0;left=0;bottom=0;fillColor=none;align=left;verticalAlign=top;spacingLeft=4;spacingRight=4;overflow=hidden;rotatable=0;points=[];portConstraint=eastwest;part=1;fontSize=12;fontColor=#000000;strokeColor=#000000;fontStyle=0" parent="127" vertex="1" connectable="0">
                    <mxGeometry width="30" height="26" as="geometry"/>
                </mxCell>
                <mxCell id="203" value="comment VARCHAR(128) NULLABLE" style="shape=partialRectangle;top=0;left=0;right=0;bottom=0;align=left;verticalAlign=top;fillColor=#ffffff;spacingLeft=34;spacingRight=4;overflow=hidden;rotatable=0;points=[[0,0.5],[1,0.5]];portConstraint=eastwest;dropTarget=0;fontSize=12;fontColor=#000000;strokeColor=#000000;strokeWidth=1;perimeterSpacing=0;fontStyle=0" parent="124" vertex="1">
                    <mxGeometry y="108" width="250" height="26" as="geometry"/>
                </mxCell>
                <mxCell id="204" value="" style="shape=partialRectangle;top=0;left=0;bottom=0;fillColor=none;align=left;verticalAlign=top;spacingLeft=4;spacingRight=4;overflow=hidden;rotatable=0;points=[];portConstraint=eastwest;part=1;fontSize=12;fontColor=#000000;strokeColor=#000000;fontStyle=0" parent="203" vertex="1" connectable="0">
                    <mxGeometry width="30" height="26" as="geometry"/>
                </mxCell>
                <mxCell id="129" value="price VARCHAR(19)" style="shape=partialRectangle;top=0;left=0;right=0;bottom=0;align=left;verticalAlign=top;fillColor=#ffffff;spacingLeft=34;spacingRight=4;overflow=hidden;rotatable=0;points=[[0,0.5],[1,0.5]];portConstraint=eastwest;dropTarget=0;fontSize=12;fontColor=#000000;strokeColor=#000000;fontStyle=0" parent="124" vertex="1">
                    <mxGeometry y="134" width="250" height="26" as="geometry"/>
                </mxCell>
                <mxCell id="130" value="" style="shape=partialRectangle;top=0;left=0;bottom=0;fillColor=none;align=left;verticalAlign=top;spacingLeft=4;spacingRight=4;overflow=hidden;rotatable=0;points=[];portConstraint=eastwest;part=1;fontSize=12;fontColor=#000000;strokeColor=#000000;fontStyle=0" parent="129" vertex="1" connectable="0">
                    <mxGeometry width="30" height="26" as="geometry"/>
                </mxCell>
                <mxCell id="187" value="currency TINYINT" style="shape=partialRectangle;top=0;left=0;right=0;bottom=0;align=left;verticalAlign=top;fillColor=#ffffff;spacingLeft=34;spacingRight=4;overflow=hidden;rotatable=0;points=[[0,0.5],[1,0.5]];portConstraint=eastwest;dropTarget=0;fontSize=12;fontColor=#000000;strokeColor=#000000;fontStyle=0" parent="124" vertex="1">
                    <mxGeometry y="160" width="250" height="26" as="geometry"/>
                </mxCell>
                <mxCell id="188" value="" style="shape=partialRectangle;top=0;left=0;bottom=0;fillColor=none;align=left;verticalAlign=top;spacingLeft=4;spacingRight=4;overflow=hidden;rotatable=0;points=[];portConstraint=eastwest;part=1;fontSize=12;fontColor=#000000;strokeColor=#000000;fontStyle=0" parent="187" vertex="1" connectable="0">
                    <mxGeometry width="30" height="26" as="geometry"/>
                </mxCell>
                <mxCell id="72" value="likes" style="swimlane;fontStyle=1;childLayout=stackLayout;horizontal=1;startSize=26;horizontalStack=0;resizeParent=1;resizeParentMax=0;resizeLast=0;collapsible=1;marginBottom=0;align=center;fontSize=14;strokeColor=#000000;fillColor=#d80073;fontColor=#000000;" parent="1" vertex="1">
                    <mxGeometry x="500" y="-130" width="210" height="108" as="geometry">
                        <mxRectangle x="370" y="-108" width="60" height="26" as="alternateBounds"/>
                    </mxGeometry>
                </mxCell>
                <mxCell id="73" value="id BIGINT" style="shape=partialRectangle;top=0;left=0;right=0;bottom=1;align=left;verticalAlign=middle;fillColor=#FFFFFF;spacingLeft=60;spacingRight=4;overflow=hidden;rotatable=0;points=[[0,0.5],[1,0.5]];portConstraint=eastwest;dropTarget=0;fontStyle=1;fontSize=12;fontColor=#000000;strokeColor=#000000;gradientColor=none;" parent="72" vertex="1">
                    <mxGeometry y="26" width="210" height="30" as="geometry"/>
                </mxCell>
                <mxCell id="74" value="PK AI" style="shape=partialRectangle;top=0;left=0;bottom=0;fillColor=#ffffff;align=left;verticalAlign=middle;spacingLeft=4;spacingRight=4;overflow=hidden;rotatable=0;points=[];portConstraint=eastwest;part=1;fontSize=12;fontColor=#000000;strokeColor=#000000;fontStyle=0" parent="73" vertex="1" connectable="0">
                    <mxGeometry width="50" height="30" as="geometry"/>
                </mxCell>
                <mxCell id="75" value="likeable_type VARCHAR(10)" style="shape=partialRectangle;top=1;left=0;right=0;bottom=0;align=left;verticalAlign=top;fillColor=#ffffff;spacingLeft=34;spacingRight=4;overflow=hidden;rotatable=0;points=[[0,0.5],[1,0.5]];portConstraint=eastwest;dropTarget=0;fontSize=12;fontColor=#000000;strokeColor=#000000;fontStyle=0" parent="72" vertex="1">
                    <mxGeometry y="56" width="210" height="26" as="geometry"/>
                </mxCell>
                <mxCell id="76" value="" style="shape=partialRectangle;top=1;left=0;bottom=0;fillColor=#ffffff;align=left;verticalAlign=top;spacingLeft=4;spacingRight=4;overflow=hidden;rotatable=0;points=[];portConstraint=eastwest;part=1;fontSize=12;fontColor=#000000;strokeColor=#000000;fontStyle=0" parent="75" vertex="1" connectable="0">
                    <mxGeometry width="30" height="26" as="geometry"/>
                </mxCell>
                <mxCell id="77" value="likeable_id VARCHAR(100)" style="shape=partialRectangle;top=0;left=0;right=0;bottom=0;align=left;verticalAlign=top;fillColor=#ffffff;spacingLeft=34;spacingRight=4;overflow=hidden;rotatable=0;points=[[0,0.5],[1,0.5]];portConstraint=eastwest;dropTarget=0;fontSize=12;fontColor=#000000;strokeColor=#000000;fontStyle=0" parent="72" vertex="1">
                    <mxGeometry y="82" width="210" height="26" as="geometry"/>
                </mxCell>
                <mxCell id="78" value="" style="shape=partialRectangle;top=0;left=0;bottom=0;fillColor=#ffffff;align=left;verticalAlign=top;spacingLeft=4;spacingRight=4;overflow=hidden;rotatable=0;points=[];portConstraint=eastwest;part=1;fontSize=12;fontColor=#000000;strokeColor=#000000;fontStyle=0" parent="77" vertex="1" connectable="0">
                    <mxGeometry width="30" height="26" as="geometry"/>
                </mxCell>
                <mxCell id="BgNpJ9vTfVfPSBrooB9f-211" value="" style="fontSize=12;html=1;endArrow=ERmany;strokeColor=#FFFFFF;strokeWidth=2;fontStyle=0;fontColor=#000000;exitX=0.655;exitY=-0.012;exitDx=0;exitDy=0;exitPerimeter=0;edgeStyle=orthogonalEdgeStyle;curved=1;" parent="1" source="2" target="BgNpJ9vTfVfPSBrooB9f-209" edge="1">
                    <mxGeometry width="100" height="100" relative="1" as="geometry">
                        <mxPoint x="362.5" y="90" as="sourcePoint"/>
                        <mxPoint x="615" y="-12" as="targetPoint"/>
                    </mxGeometry>
                </mxCell>
                <mxCell id="BgNpJ9vTfVfPSBrooB9f-204" value="feedbacks" style="swimlane;fontStyle=1;childLayout=stackLayout;horizontal=1;startSize=26;horizontalStack=0;resizeParent=1;resizeParentMax=0;resizeLast=0;collapsible=1;marginBottom=0;align=center;fontSize=14;strokeColor=#000000;fillColor=#00FF00;fontColor=#000000;" parent="1" vertex="1">
                    <mxGeometry x="510" y="-294" width="210" height="108" as="geometry">
                        <mxRectangle x="370" y="-108" width="60" height="26" as="alternateBounds"/>
                    </mxGeometry>
                </mxCell>
                <mxCell id="BgNpJ9vTfVfPSBrooB9f-205" value="id BIGINT" style="shape=partialRectangle;top=0;left=0;right=0;bottom=1;align=left;verticalAlign=middle;fillColor=#FFFFFF;spacingLeft=60;spacingRight=4;overflow=hidden;rotatable=0;points=[[0,0.5],[1,0.5]];portConstraint=eastwest;dropTarget=0;fontStyle=1;fontSize=12;fontColor=#000000;strokeColor=#000000;gradientColor=none;" parent="BgNpJ9vTfVfPSBrooB9f-204" vertex="1">
                    <mxGeometry y="26" width="210" height="30" as="geometry"/>
                </mxCell>
                <mxCell id="BgNpJ9vTfVfPSBrooB9f-206" value="PK AI" style="shape=partialRectangle;top=0;left=0;bottom=0;fillColor=#ffffff;align=left;verticalAlign=middle;spacingLeft=4;spacingRight=4;overflow=hidden;rotatable=0;points=[];portConstraint=eastwest;part=1;fontSize=12;fontColor=#000000;strokeColor=#000000;fontStyle=0" parent="BgNpJ9vTfVfPSBrooB9f-205" vertex="1" connectable="0">
                    <mxGeometry width="50" height="30" as="geometry"/>
                </mxCell>
                <mxCell id="BgNpJ9vTfVfPSBrooB9f-207" value="comment TEXT" style="shape=partialRectangle;top=1;left=0;right=0;bottom=0;align=left;verticalAlign=top;fillColor=#ffffff;spacingLeft=34;spacingRight=4;overflow=hidden;rotatable=0;points=[[0,0.5],[1,0.5]];portConstraint=eastwest;dropTarget=0;fontSize=12;fontColor=#000000;strokeColor=#000000;fontStyle=0" parent="BgNpJ9vTfVfPSBrooB9f-204" vertex="1">
                    <mxGeometry y="56" width="210" height="26" as="geometry"/>
                </mxCell>
                <mxCell id="BgNpJ9vTfVfPSBrooB9f-208" value="" style="shape=partialRectangle;top=1;left=0;bottom=0;fillColor=#ffffff;align=left;verticalAlign=top;spacingLeft=4;spacingRight=4;overflow=hidden;rotatable=0;points=[];portConstraint=eastwest;part=1;fontSize=12;fontColor=#000000;strokeColor=#000000;fontStyle=0" parent="BgNpJ9vTfVfPSBrooB9f-207" vertex="1" connectable="0">
                    <mxGeometry width="30" height="26" as="geometry"/>
                </mxCell>
                <mxCell id="BgNpJ9vTfVfPSBrooB9f-209" value="user_id BINGINT" style="shape=partialRectangle;top=0;left=0;right=0;bottom=0;align=left;verticalAlign=top;fillColor=#ffffff;spacingLeft=34;spacingRight=4;overflow=hidden;rotatable=0;points=[[0,0.5],[1,0.5]];portConstraint=eastwest;dropTarget=0;fontSize=12;fontColor=#000000;strokeColor=#000000;fontStyle=0" parent="BgNpJ9vTfVfPSBrooB9f-204" vertex="1">
                    <mxGeometry y="82" width="210" height="26" as="geometry"/>
                </mxCell>
                <mxCell id="BgNpJ9vTfVfPSBrooB9f-210" value="" style="shape=partialRectangle;top=0;left=0;bottom=0;fillColor=#ffffff;align=left;verticalAlign=top;spacingLeft=4;spacingRight=4;overflow=hidden;rotatable=0;points=[];portConstraint=eastwest;part=1;fontSize=12;fontColor=#000000;strokeColor=#000000;fontStyle=0" parent="BgNpJ9vTfVfPSBrooB9f-209" vertex="1" connectable="0">
                    <mxGeometry width="30" height="26" as="geometry"/>
                </mxCell>
            </root>
        </mxGraphModel>
    </diagram>
</mxfile>